<?xml version="1.0" encoding="utf-8"?>
<svg version="1.0" xmlns="http://www.w3.org/2000/svg" width="1024.000000pt" height="1024.000000pt" viewBox="0 0 1024.000000 1024.000000" preserveAspectRatio="xMidYMid meet">
  <defs>
    <mask id="invertMask">
      <rect width="3376.19" height="3376.19" fill="white" y="-1158.6" x="-1174.5"/>
      <g transform="matrix(0.329706, 0, 0, -0.329706, -1174.5, 2217.589844)" fill="#000000" stroke="none">
        <path d="M0 5120 l0 -5120 5120 0 5120 0 0 5120 0 5120 -5120 0 -5120 0 0 -5120z m5573 1096 c498 -120 521 -126 514 -132 -3 -3 -31 -12 -63 -19 -33 -8 -249 -59 -481 -114 -232 -55 -430 -98 -440 -96 -62 14 -694 162 -817 192 -89 21 -143 39 -135 43 25 14 930 228 967 229 13 1 217 -46 455 -103z m-1568 -271 c266 -60 749 -175 770 -184 20 -8 -71 -32 -579 -150 -170 -39 -213 -53 -228 -71 -17 -21 -18 -59 -18 -631 l0 -608 23 -25 c23 -25 102 -46 549 -140 80 -17 149 -34 152 -36 3 -3 -50 -18 -117 -33 -482 -105 -720 -157 -723 -157 -2 0 -4 466 -4 1035 0 609 4 1035 9 1035 5 0 80 -16 166 -35z m2405 -1001 c0 -981 -1 -1035 -17 -1030 -10 3 -164 37 -343 76 -443 96 -487 107 -470 113 8 3 161 38 340 78 280 62 328 75 348 96 l22 24 0 614 0 614 -25 19 c-14 11 -42 23 -62 27 -66 12 -757 175 -761 180 -6 5 39 17 293 74 121 28 315 73 430 100 116 27 218 50 228 50 16 1 17 -55 17 -1035z m-1023 655 c142 -33 365 -84 496 -114 131 -30 242 -57 247 -60 12 -8 13 -1004 1 -1023 -8 -13 -961 -233 -1011 -234 -14 0 -155 30 -315 66 -159 37 -373 85 -475 107 -102 23 -193 45 -202 50 -17 9 -18 44 -18 523 l0 514 88 21 c48 11 166 39 262 60 138 32 499 114 625 144 11 3 25 5 32 6 7 0 128 -26 270 -60z"/>
        <path d="M5240 5331 l-54 -6 -138 -415 c-75 -228 -137 -419 -137 -423 -1 -4 29 -7 67 -5 l67 3 78 240 c142 434 185 570 189 589 4 23 -2 24 -72 17z"/>
        <path d="M4541 5103 c-203 -198 -202 -177 -3 -375 162 -161 180 -171 227 -123 49 48 37 71 -90 192 -63 61 -115 113 -115 116 0 4 52 58 115 120 100 98 115 116 115 145 0 40 -30 72 -69 72 -25 0 -56 -25 -180 -147z"/>
        <path d="M5478 5233 c-24 -27 -30 -60 -17 -85 6 -13 62 -71 123 -129 l110 -106 -99 -94 c-55 -52 -110 -104 -122 -116 -30 -29 -29 -68 2 -98 46 -47 65 -37 214 107 153 150 171 171 171 212 0 24 -25 53 -152 177 -129 125 -158 148 -184 149 -17 0 -38 -8 -46 -17z"/>
      </g>
    </mask>
  </defs>
  <rect width="3376.19" height="3376.19" fill="#000000" mask="url(#invertMask)" y="-1158.6" x="-1174.5" style="transform-box: fill-box; transform-origin: 131.263% 62.0267%;"/>
</svg>